<svg width="242" height="45" viewBox="0 0 242 45" fill="none" xmlns="http://www.w3.org/2000/svg">
<path d="M37.1625 3.75H7.8375C5.58004 3.75 3.75 5.58004 3.75 7.8375V37.1625C3.75 39.42 5.58004 41.25 7.8375 41.25H37.1625C39.42 41.25 41.25 39.42 41.25 37.1625V7.8375C41.25 5.58004 39.42 3.75 37.1625 3.75Z" stroke="#A64DD6" stroke-width="2" stroke-linecap="round" stroke-linejoin="round"/>
<path d="M13.125 3.75V41.25" stroke="#A64DD6" stroke-width="2" stroke-linecap="round" stroke-linejoin="round"/>
<path d="M31.875 3.75V41.25" stroke="#A64DD6" stroke-width="2" stroke-linecap="round" stroke-linejoin="round"/>
<path d="M3.75 22.5H41.25" stroke="#A64DD6" stroke-width="2" stroke-linecap="round" stroke-linejoin="round"/>
<path d="M3.75 13.125H13.125" stroke="#A64DD6" stroke-width="2" stroke-linecap="round" stroke-linejoin="round"/>
<path d="M3.75 31.875H13.125" stroke="#A64DD6" stroke-width="2" stroke-linecap="round" stroke-linejoin="round"/>
<path d="M31.875 31.875H41.25" stroke="#A64DD6" stroke-width="2" stroke-linecap="round" stroke-linejoin="round"/>
<path d="M31.875 13.125H41.25" stroke="#A64DD6" stroke-width="2" stroke-linecap="round" stroke-linejoin="round"/>
<path d="M55.8182 34V10.7273H58.6364V31.5H69.4545V34H55.8182ZM80.5455 34.3636C78.9697 34.3636 77.5871 33.9886 76.3977 33.2386C75.2159 32.4886 74.2917 31.4394 73.625 30.0909C72.9659 28.7424 72.6364 27.1667 72.6364 25.3636C72.6364 23.5455 72.9659 21.9583 73.625 20.6023C74.2917 19.2462 75.2159 18.1932 76.3977 17.4432C77.5871 16.6932 78.9697 16.3182 80.5455 16.3182C82.1212 16.3182 83.5 16.6932 84.6818 17.4432C85.8712 18.1932 86.7955 19.2462 87.4545 20.6023C88.1212 21.9583 88.4545 23.5455 88.4545 25.3636C88.4545 27.1667 88.1212 28.7424 87.4545 30.0909C86.7955 31.4394 85.8712 32.4886 84.6818 33.2386C83.5 33.9886 82.1212 34.3636 80.5455 34.3636ZM80.5455 31.9545C81.7424 31.9545 82.7273 31.6477 83.5 31.0341C84.2727 30.4205 84.8447 29.6136 85.2159 28.6136C85.5871 27.6136 85.7727 26.5303 85.7727 25.3636C85.7727 24.197 85.5871 23.1098 85.2159 22.1023C84.8447 21.0947 84.2727 20.2803 83.5 19.6591C82.7273 19.0379 81.7424 18.7273 80.5455 18.7273C79.3485 18.7273 78.3636 19.0379 77.5909 19.6591C76.8182 20.2803 76.2462 21.0947 75.875 22.1023C75.5038 23.1098 75.3182 24.197 75.3182 25.3636C75.3182 26.5303 75.5038 27.6136 75.875 28.6136C76.2462 29.6136 76.8182 30.4205 77.5909 31.0341C78.3636 31.6477 79.3485 31.9545 80.5455 31.9545ZM106.196 16.5455L99.7415 34H97.0142L90.5597 16.5455H93.4688L98.2869 30.4545H98.4688L103.287 16.5455H106.196ZM116.429 34.3636C114.747 34.3636 113.296 33.9924 112.077 33.25C110.865 32.5 109.929 31.4545 109.27 30.1136C108.618 28.7652 108.293 27.197 108.293 25.4091C108.293 23.6212 108.618 22.0455 109.27 20.6818C109.929 19.3106 110.846 18.2424 112.02 17.4773C113.202 16.7045 114.58 16.3182 116.156 16.3182C117.065 16.3182 117.963 16.4697 118.849 16.7727C119.736 17.0758 120.543 17.5682 121.27 18.25C121.997 18.9242 122.577 19.8182 123.009 20.9318C123.44 22.0455 123.656 23.4167 123.656 25.0455V26.1818H110.202V23.8636H120.929C120.929 22.8788 120.732 22 120.338 21.2273C119.952 20.4545 119.399 19.8447 118.679 19.3977C117.967 18.9508 117.126 18.7273 116.156 18.7273C115.088 18.7273 114.164 18.9924 113.384 19.5227C112.611 20.0455 112.016 20.7273 111.599 21.5682C111.183 22.4091 110.974 23.3106 110.974 24.2727V25.8182C110.974 27.1364 111.202 28.2538 111.656 29.1705C112.118 30.0795 112.759 30.7727 113.577 31.25C114.395 31.7197 115.346 31.9545 116.429 31.9545C117.134 31.9545 117.77 31.8561 118.338 31.6591C118.914 31.4545 119.41 31.1515 119.827 30.75C120.243 30.3409 120.565 29.8333 120.793 29.2273L123.384 29.9545C123.111 30.8333 122.652 31.6061 122.009 32.2727C121.365 32.9318 120.569 33.447 119.622 33.8182C118.675 34.1818 117.611 34.3636 116.429 34.3636ZM146.827 18H144.009C143.842 17.1894 143.55 16.4773 143.134 15.8636C142.724 15.25 142.224 14.7348 141.634 14.3182C141.05 13.8939 140.402 13.5758 139.69 13.3636C138.978 13.1515 138.236 13.0455 137.463 13.0455C136.054 13.0455 134.777 13.4015 133.634 14.1136C132.497 14.8258 131.592 15.875 130.918 17.2614C130.251 18.6477 129.918 20.3485 129.918 22.3636C129.918 24.3788 130.251 26.0795 130.918 27.4659C131.592 28.8523 132.497 29.9015 133.634 30.6136C134.777 31.3258 136.054 31.6818 137.463 31.6818C138.236 31.6818 138.978 31.5758 139.69 31.3636C140.402 31.1515 141.05 30.8371 141.634 30.4205C142.224 29.9962 142.724 29.4773 143.134 28.8636C143.55 28.2424 143.842 27.5303 144.009 26.7273H146.827C146.615 27.9167 146.228 28.9811 145.668 29.9205C145.107 30.8598 144.41 31.6591 143.577 32.3182C142.743 32.9697 141.808 33.4659 140.77 33.8068C139.74 34.1477 138.637 34.3182 137.463 34.3182C135.478 34.3182 133.713 33.8333 132.168 32.8636C130.622 31.8939 129.406 30.5152 128.52 28.7273C127.634 26.9394 127.19 24.8182 127.19 22.3636C127.19 19.9091 127.634 17.7879 128.52 16C129.406 14.2121 130.622 12.8333 132.168 11.8636C133.713 10.8939 135.478 10.4091 137.463 10.4091C138.637 10.4091 139.74 10.5795 140.77 10.9205C141.808 11.2614 142.743 11.7614 143.577 12.4205C144.41 13.072 145.107 13.8674 145.668 14.8068C146.228 15.7386 146.615 16.803 146.827 18ZM151.017 34V16.5455H153.699V34H151.017ZM152.381 13.6364C151.858 13.6364 151.407 13.4583 151.028 13.1023C150.657 12.7462 150.472 12.3182 150.472 11.8182C150.472 11.3182 150.657 10.8902 151.028 10.5341C151.407 10.178 151.858 10 152.381 10C152.903 10 153.35 10.178 153.722 10.5341C154.1 10.8902 154.29 11.3182 154.29 11.8182C154.29 12.3182 154.1 12.7462 153.722 13.1023C153.35 13.4583 152.903 13.6364 152.381 13.6364ZM161.293 23.5V34H158.611V16.5455H161.202V19.2727H161.429C161.838 18.3864 162.459 17.6742 163.293 17.1364C164.126 16.5909 165.202 16.3182 166.52 16.3182C167.702 16.3182 168.736 16.5606 169.622 17.0455C170.509 17.5227 171.198 18.25 171.69 19.2273C172.183 20.197 172.429 21.4242 172.429 22.9091V34H169.747V23.0909C169.747 21.7197 169.391 20.6515 168.679 19.8864C167.967 19.1136 166.99 18.7273 165.747 18.7273C164.891 18.7273 164.126 18.9129 163.452 19.2841C162.785 19.6553 162.259 20.197 161.872 20.9091C161.486 21.6212 161.293 22.4848 161.293 23.5ZM184.648 34.3636C182.966 34.3636 181.515 33.9924 180.295 33.25C179.083 32.5 178.148 31.4545 177.489 30.1136C176.837 28.7652 176.511 27.197 176.511 25.4091C176.511 23.6212 176.837 22.0455 177.489 20.6818C178.148 19.3106 179.064 18.2424 180.239 17.4773C181.42 16.7045 182.799 16.3182 184.375 16.3182C185.284 16.3182 186.182 16.4697 187.068 16.7727C187.955 17.0758 188.761 17.5682 189.489 18.25C190.216 18.9242 190.795 19.8182 191.227 20.9318C191.659 22.0455 191.875 23.4167 191.875 25.0455V26.1818H178.42V23.8636H189.148C189.148 22.8788 188.951 22 188.557 21.2273C188.17 20.4545 187.617 19.8447 186.898 19.3977C186.186 18.9508 185.345 18.7273 184.375 18.7273C183.307 18.7273 182.383 18.9924 181.602 19.5227C180.83 20.0455 180.235 20.7273 179.818 21.5682C179.402 22.4091 179.193 23.3106 179.193 24.2727V25.8182C179.193 27.1364 179.42 28.2538 179.875 29.1705C180.337 30.0795 180.977 30.7727 181.795 31.25C182.614 31.7197 183.564 31.9545 184.648 31.9545C185.352 31.9545 185.989 31.8561 186.557 31.6591C187.133 31.4545 187.629 31.1515 188.045 30.75C188.462 30.3409 188.784 29.8333 189.011 29.2273L191.602 29.9545C191.33 30.8333 190.871 31.6061 190.227 32.2727C189.583 32.9318 188.788 33.447 187.841 33.8182C186.894 34.1818 185.83 34.3636 184.648 34.3636ZM195.955 34V16.5455H198.545V19.2727H198.773C199.136 18.3409 199.723 17.6174 200.534 17.1023C201.345 16.5795 202.318 16.3182 203.455 16.3182C204.606 16.3182 205.564 16.5795 206.33 17.1023C207.102 17.6174 207.705 18.3409 208.136 19.2727H208.318C208.765 18.3712 209.436 17.6553 210.33 17.125C211.223 16.5871 212.295 16.3182 213.545 16.3182C215.106 16.3182 216.383 16.8068 217.375 17.7841C218.367 18.7538 218.864 20.2652 218.864 22.3182V34H216.182V22.3182C216.182 21.0303 215.83 20.1098 215.125 19.5568C214.42 19.0038 213.591 18.7273 212.636 18.7273C211.409 18.7273 210.458 19.0985 209.784 19.8409C209.11 20.5758 208.773 21.5076 208.773 22.6364V34H206.045V22.0455C206.045 21.053 205.723 20.2538 205.08 19.6477C204.436 19.0341 203.606 18.7273 202.591 18.7273C201.894 18.7273 201.242 18.9129 200.636 19.2841C200.038 19.6553 199.553 20.1705 199.182 20.8295C198.818 21.4811 198.636 22.2348 198.636 23.0909V34H195.955ZM228.903 34.4091C227.797 34.4091 226.794 34.2008 225.892 33.7841C224.991 33.3598 224.275 32.75 223.744 31.9545C223.214 31.1515 222.949 30.1818 222.949 29.0455C222.949 28.0455 223.146 27.2348 223.54 26.6136C223.934 25.9848 224.46 25.4924 225.119 25.1364C225.778 24.7803 226.506 24.5152 227.301 24.3409C228.104 24.1591 228.911 24.0152 229.722 23.9091C230.782 23.7727 231.642 23.6705 232.301 23.6023C232.968 23.5265 233.453 23.4015 233.756 23.2273C234.066 23.053 234.222 22.75 234.222 22.3182V22.2273C234.222 21.1061 233.915 20.2348 233.301 19.6136C232.695 18.9924 231.775 18.6818 230.54 18.6818C229.259 18.6818 228.256 18.9621 227.528 19.5227C226.801 20.0833 226.29 20.6818 225.994 21.3182L223.449 20.4091C223.903 19.3485 224.509 18.5227 225.267 17.9318C226.032 17.3333 226.866 16.9167 227.767 16.6818C228.676 16.4394 229.57 16.3182 230.449 16.3182C231.009 16.3182 231.653 16.3864 232.381 16.5227C233.116 16.6515 233.824 16.9205 234.506 17.3295C235.195 17.7386 235.767 18.3561 236.222 19.1818C236.676 20.0076 236.903 21.1136 236.903 22.5V34H234.222V31.6364H234.085C233.903 32.0152 233.6 32.4205 233.176 32.8523C232.752 33.2841 232.188 33.6515 231.483 33.9545C230.778 34.2576 229.919 34.4091 228.903 34.4091ZM229.312 32C230.373 32 231.267 31.7917 231.994 31.375C232.729 30.9583 233.282 30.4205 233.653 29.7614C234.032 29.1023 234.222 28.4091 234.222 27.6818V25.2273C234.108 25.3636 233.858 25.4886 233.472 25.6023C233.093 25.7083 232.653 25.803 232.153 25.8864C231.661 25.9621 231.18 26.0303 230.71 26.0909C230.248 26.1439 229.873 26.1894 229.585 26.2273C228.888 26.3182 228.237 26.4659 227.631 26.6705C227.032 26.8674 226.547 27.1667 226.176 27.5682C225.813 27.9621 225.631 28.5 225.631 29.1818C225.631 30.1136 225.975 30.8182 226.665 31.2955C227.362 31.7652 228.244 32 229.312 32Z" fill="white" fill-opacity="0.9"/>
</svg>
